<svg xmlns="http://www.w3.org/2000/svg" xml:space="preserve" width="130" height="130" viewBox="0 0 130 130">
  <path fill="#6366f1" fill-rule="evenodd" d="M102.1 53.9H124c1.4 0 2.5 1.1 2.5 2.5v15.4c0 1.4-1.1 2.5-2.5 2.5h-21.8c-1.4 0-2.5-1.1-2.5-2.5V56.3c0-1.3 1.1-2.4 2.4-2.4M17 46.4c7.4 0 13.4 6 13.4 13.4s-6 13.4-13.4 13.4-13.4-6-13.4-13.4 6-13.4 13.4-13.4m-1.9 6.7h1.6c.3 0 .5.2.5.5V60H23c.3 0 .5.2.5.5v1.6c0 .3-.2.5-.5.5h-8.5v-9c.1-.3.3-.5.6-.5m1.9-3.6c5.7 0 10.4 4.6 10.4 10.3S22.7 70.2 17 70.2 6.6 65.6 6.6 59.8 11.2 49.5 17 49.5m39.1 39.3c3.4 10 17.5 10.3 20.7 0 3.8 3.4 14.8 4.1 18.9 6.3 1.3.7 2.5 1.7 3.4 2.9.6.8 1.5 2.4 2.1 4.1H31.6c.6-1.7 1.5-3.3 2.1-4.1 1-1.2 2.1-2.2 3.4-2.9 4.2-2.3 15.2-3 19-6.3m14.2-62.2c.6-.1.7-.1 1.2 0V16.4l-11.2 3v12.8c0 1.8-2.4 3.6-4.7 4s-4.2-.7-4.2-2.5 1.9-3.6 4.2-4c.9-.1 1.7-.1 2.4.1V14.6L73.7 11v17.8c0 1.5-1.6 3-3.5 3.3s-3.5-.6-3.5-2.1 1.6-3 3.6-3.4M53.5 68.1c-.7 0-1.2.2-1.6.4-.2.1-.4.3-.5.5s-.2.5-.2.9c0 1 .5 2.2 1.5 3.7l3.2 5.1c1.3 2 2.6 4.1 4.3 5.7 1.6 1.5 3.6 2.5 6.1 2.5 2.8 0 4.8-1 6.5-2.6s3.1-3.8 4.4-6l3.6-5.9c.7-1.5.9-2.6.8-3.2-.1-.4-.5-.5-1.2-.6h-2.2l1.2-5c-9.2 1.5-16-5.4-25.7-1.4l.7 5.9c-.2.1-.6.1-.9 0M81.8 67c.9.3 1.5.8 1.7 1.8.3 1 0 2.4-.9 4.4 0 0 0 .1-.1.1l-3.7 6c-1.4 2.3-2.8 4.6-4.7 6.4-2 1.8-4.4 3.1-7.7 3.1-3.1 0-5.4-1.2-7.4-2.9-1.8-1.7-3.3-3.9-4.6-6l-3.2-5.1c-1.2-1.8-1.8-3.3-1.8-4.7 0-.6.1-1.2.3-1.7s.6-.9 1.1-1.3c.2-.2.5-.3.8-.4-.2-2.8-.3-5.7-.2-8.6.1-.7.2-1.4.4-2.1.8-2.9 2.9-4.3 5.4-5.9 1.4-.9 2.9-1.6 4.5-2 .3-.1 4.3-9.5 17 4.3 1.8 1.9 2.9 3.5 3.1 6.8zm-62 32.2c.5 1.2 0 2.6-1.2 3.1s-2.5 0-3.1-1.2c-1.3-2.9-2.4-5.9-3.1-9.1-.8-3.1-1.3-6.3-1.5-9.5 0-.6-.1-1.2-.1-2v-2c0-1.3 1-2.3 2.3-2.3s2.3 1.1 2.3 2.3v1.8c0 .5.1 1.1.1 1.8.2 3 .7 5.9 1.4 8.7.7 2.9 1.6 5.7 2.9 8.4M30.1 43c-.9.9-2.4.9-3.3 0s-.9-2.4 0-3.3c2.2-2.2 5.2-4.7 8.3-6.9 2.7-1.9 5.6-3.5 8.4-4.6 1.2-.5 2.5.1 3 1.3s-.1 2.5-1.3 3c-2.4.9-4.9 2.4-7.4 4.1-3 2-5.7 4.3-7.7 6.4m56.3-10.4c-1.2-.5-1.7-1.9-1.2-3.1s1.9-1.7 3.1-1.2c4.3 1.9 8.2 4.4 11.8 7.3s6.9 6.3 9.7 10c.8 1 .6 2.5-.5 3.2-1 .8-2.5.6-3.2-.5-2.6-3.4-5.5-6.5-8.9-9.2-3.3-2.5-6.9-4.7-10.8-6.5m29.5 49.7c.1-1.3 1.2-2.2 2.5-2.2 1.3.1 2.2 1.2 2.2 2.5q-.3 4.65-1.5 9.3c-.8 3.1-1.8 6-3 8.8-.5 1.2-1.9 1.7-3.1 1.2s-1.7-1.9-1.2-3.1c1.2-2.6 2.1-5.3 2.8-8.1.6-2.6 1.1-5.5 1.3-8.4m-4.3-22.9 6 4.2c.4.3.5.8.3 1.2-.1.1-.1.2-.2.3l-6 4.1c-.2.1-.4.2-.6.2-.5 0-.9-.4-.9-.9v-8.4c0-.2.1-.4.2-.5.2-.3.7-.4 1.2-.2" clip-rule="evenodd"/>
  <path d="M56.1 88.8c3.4 10 17.5 10.3 20.7 0 3.8 3.4 14.8 4.1 18.9 6.3 1.3.7 2.5 1.7 3.4 2.9.6.8 1.5 2.4 2.1 4.1H31.6c.6-1.7 1.5-3.3 2.1-4.1 1-1.2 2.1-2.2 3.4-2.9 4.2-2.3 15.2-3 19-6.3m27.4-20.1c-.2-.9-.8-1.5-1.7-1.8l.2-7.8c-.2-3.4-1.4-4.9-3.1-6.8C66.1 38.5 62.1 48 61.8 48c-1.6.5-3.1 1.1-4.5 2-2.5 1.6-4.6 3-5.4 5.9-.2.7-.3 1.4-.4 2.1-.1 2.9 0 5.9.2 8.6-.3.1-.5.2-.8.4-.5.3-.9.8-1.1 1.3s-.3 1-.3 1.7c0 1.3.6 2.9 1.8 4.7l3.2 5.1c1.3 2.1 2.8 4.3 4.6 6 1.9 1.8 4.3 2.9 7.4 2.9 3.3 0 5.8-1.2 7.7-3.1 1.9-1.8 3.3-4.1 4.7-6.4l3.6-6v-.1c1-1.9 1.2-3.4 1-4.4m-2.6 3.6-3.6 5.9c-1.4 2.2-2.7 4.4-4.4 6s-3.7 2.6-6.5 2.6c-2.6 0-4.5-1-6.1-2.5-1.7-1.5-3-3.6-4.3-5.7l-3.2-5.1c-1-1.5-1.5-2.8-1.5-3.7 0-.3 0-.6.2-.9.1-.2.3-.4.5-.5.4-.2.9-.4 1.6-.4.3 0 .7.1 1.1 0l-.7-5.9c9.7-4 16.6 2.8 25.7 1.4l-1.2 5c.3 0 .7.1 1 0h1.2q1.05 0 1.2.6c0 .7-.3 1.7-1 3.2" fill-rule="evenodd" clip-rule="evenodd" fill="#c122b4"/>
</svg>
