<svg xmlns="http://www.w3.org/2000/svg" xml:space="preserve" id="uwu__lock_svg__uwu__lock_svg__uwu__lock_svg__Layer_1" width="130" height="130" x="0" y="0" viewBox="0 0 130 130">
  <style>
    .uwu__lock_svg__uwu__lock_svg__st0{fill:#6366f1}
  </style>
  <path d="M105.6 80.3c-2.3.1-4.3 1.6-5 3.9h-5.8c-.8 0-1.4.6-1.4 1.4S94 87 94.8 87h5.9c.8 2.8 3.7 4.5 6.5 3.7 2.3-.6 3.9-2.7 3.9-5.1v-.1c-.1-3-2.6-5.3-5.5-5.2" class="uwu__lock_svg__uwu__lock_svg__st0"/>
  <path d="M123.7 80.5v-4.7c0-3.2-2.6-5.8-5.8-5.8H94.8c-.8 0-1.4.7-1.4 1.5s.7 1.4 1.5 1.4H118c1.6 0 2.9 1.3 2.9 2.9v4.7c-2.8.8-4.5 3.7-3.7 6.5s3.7 4.5 6.5 3.7 4.5-3.7 3.7-6.5c-.5-1.8-1.9-3.2-3.7-3.7M94.8 58.6h5.8c.8 2.8 3.7 4.5 6.5 3.7 2.3-.6 3.9-2.7 3.9-5.1v-.1c-.1-2.9-2.5-5.2-5.4-5.2-2.3.1-4.3 1.6-5 3.9h-5.8c-.8 0-1.4.6-1.4 1.4-.1.8.6 1.4 1.4 1.4-.1 0 0 0 0 0M35.2 84.2h-5.8c-.8-2.8-3.7-4.5-6.5-3.7-.8.2-1.6.7-2.2 1.3-1 1-1.6 2.3-1.6 3.7v.1c0 2.9 2.4 5.3 5.3 5.3 2.4 0 4.5-1.6 5.1-3.9h5.8c.8 0 1.4-.6 1.4-1.4v-.1c-.1-.7-.7-1.3-1.5-1.3" class="uwu__lock_svg__uwu__lock_svg__st0"/>
  <path d="M35.2 70H12c-3.2 0-5.8 2.6-5.8 5.8v4.7c-2.8.8-4.5 3.7-3.7 6.5s3.7 4.5 6.5 3.7 4.5-3.7 3.7-6.5c-.5-1.8-1.9-3.2-3.7-3.7v-4.7c0-1.6 1.3-2.9 2.9-2.9h23.2c.8 0 1.5-.6 1.5-1.4S36 70 35.2 70m0-14.2h-5.8c-.8-2.8-3.7-4.5-6.5-3.7-.8.2-1.6.7-2.2 1.3-1 1-1.6 2.3-1.6 3.7v.1c0 2.9 2.4 5.3 5.3 5.3 2.4 0 4.5-1.6 5.1-3.9h5.8c.8 0 1.4-.6 1.4-1.4v-.1c-.1-.7-.7-1.3-1.5-1.3" class="uwu__lock_svg__uwu__lock_svg__st0"/>
  <path fill="#c122b4" d="M85.8 53.7h-3.2v-7c0-9.7-7.9-17.5-17.5-17.5-9.7 0-17.5 7.9-17.5 17.5v7h-3.2c-1.5 0-2.7 1.2-2.7 2.7v29.9c0 1.5 1.2 2.7 2.7 2.7h41.4c1.5 0 2.7-1.2 2.7-2.7V56.4c0-1.5-1.2-2.7-2.7-2.7M68 71.8l-.4.3v5.7c0 .9-.4 1.8-1.3 2.3-.4.2-.9.3-1.3.3-.5 0-.9-.1-1.3-.3-.8-.5-1.3-1.3-1.3-2.3v-5.7l-.4-.3c-1.1-.9-1.8-2.2-1.7-3.7 0-2.2 1.7-4.2 3.9-4.6.3-.1.6-.1.8-.1.3 0 .6 0 .9.1 2.2.4 3.8 2.3 3.9 4.6 0 1.5-.7 2.9-1.8 3.7m8.2-18.1H53.8v-7c0-6.2 5-11.2 11.2-11.2s11.2 5 11.2 11.2z"/>
</svg>
