<svg xmlns="http://www.w3.org/2000/svg" xml:space="preserve" width="130" height="130" viewBox="0 0 130 130">
  <style>
    .uwu__media_svg__st1{fill-rule:evenodd;clip-rule:evenodd;fill:#c122b4}
  </style>
  <path id="uwu__media_svg__Layer_1" d="M88.5 44.8c3.8 3.8 6 9 5.9 14.4 0 5.2-2 10.4-5.9 14.4q-1.5 1.5-3.3 2.7c-5.7-.4-12-4.6-17.2-10.1-5.4-5.6-9.5-12.6-10.5-18.2 0-.1 0-.2-.1-.4.7-1 1.5-1.9 2.3-2.8 3.8-3.8 9-6 14.4-5.9 5.2-.1 10.4 1.9 14.4 5.9m21.9-2.5h3.6v1.2c9.1 2.1 10.1 6.4 4.8 13.3.6-6.8-.1-8.3-4.8-8.6v17.5c0 2.2-2.3 4.5-5.2 5s-5.2-.9-5.2-3.1c0-3.1 4.2-5.7 6.8-4.8zM99.1 81.5c2.4 0 4.3 1.9 4.3 4.3s-1.9 4.3-4.3 4.3-4.3-1.9-4.3-4.3 1.9-4.3 4.3-4.3M80.8 20.1h1.7v.6c4.3 1 4.8 3 2.3 6.3.3-3.2-.1-3.9-2.3-4v8.1c0 1.1-1.1 2.1-2.5 2.3s-2.5-.4-2.5-1.5c0-1.4 2-2.7 3.2-2.2zm-33.5 9.2q.9-.15 1.8 0V17.1l-13 3.7v14.5c0 1.9-2 3.8-4.5 4.3-2.6.4-4.6-.8-4.6-2.7s2-3.8 4.5-4.3c.9-.2 1.8-.1 2.5.2V15.2h.1L51 11.3v20.2c0 1.6-1.7 3.2-3.8 3.6s-3.8-.7-3.8-2.3c.1-1.5 1.8-3.1 3.9-3.5m-20.8 80q-1.5 1.35-3.3 2.1c-2.4 1-2.8 1.2-1.7-1.2.6-1.3 1.3-2.5 2.3-3.5-1-1.1-1.6-2.2-1.7-3.4-.2-1.2.1-2.5.7-4.1 1.8-5.2 16.4-23 25.4-34.1 2.3-2.8 4.3-5.2 5.6-6.9.1-2.1.5-4.2 1.3-6.2 2 5.4 5.8 11.3 10.5 16.3 4.3 4.6 9.5 8.4 14.6 10.3-1.8.6-3.6.9-5.5.9-1.5 1.2-3.6 2.9-6.1 4.9-11.2 9.1-30.7 24.9-34.8 26.1-1.5.4-2.7.7-3.9.6-1.2-.2-2.3-.8-3.4-1.8m27.7-46.5c-1 1.2-2.2 2.7-3.5 4.3-9 10.9-23.3 28.5-24.9 33.1-.4 1.2-.6 2-.5 2.6s.4 1.1 1.1 1.8l2.1 2.1c.6.6 1.2.9 1.8 1 .7.1 1.5-.1 2.6-.4 3.5-1.1 22.7-16.6 33.7-25.5 1.3-1.1 2.5-2 3.5-2.9-3.9-.8-7.6-2.7-10.4-5.6-2.8-2.7-4.8-6.4-5.5-10.5" fill-rule="evenodd" clip-rule="evenodd" fill="#6366f1"/>
  <g id="uwu__media_svg__Layer_2">
    <path d="M88.5 44.8c3.8 3.8 6 9 5.9 14.4 0 5.2-2 10.4-5.9 14.4q-1.5 1.5-3.3 2.7c-5.7-.4-12-4.6-17.2-10.1-5.4-5.6-9.5-12.6-10.5-18.2 0-.1 0-.2-.1-.4.7-1 1.5-1.9 2.3-2.8 3.8-3.8 9-6 14.4-5.9 5.2-.1 10.4 1.9 14.4 5.9" class="uwu__media_svg__st1"/>
    <path d="M65.7 68.2c-4.7-4.9-8.6-10.9-10.5-16.3-.8 2-1.2 4.1-1.3 6.2-1.3 1.7-3.3 4.1-5.6 6.9-9.2 11.2-23.7 29-25.5 34.2-.5 1.6-.8 2.8-.7 4.1.2 1.2.7 2.3 1.7 3.4-.9 1-1.7 2.2-2.3 3.5-1.1 2.5-.8 2.3 1.7 1.2q1.8-.75 3.3-2.1c1.1 1 2.2 1.5 3.4 1.7 1.2.1 2.4-.1 3.9-.6 4.1-1.3 23.6-17.1 34.8-26.1 2.6-2.1 4.7-3.8 6.1-4.9 1.9-.1 3.7-.4 5.5-.9-5-1.9-10.2-5.7-14.5-10.3m1 13.7c-11 8.9-30.2 24.5-33.7 25.5-1.1.3-2 .5-2.6.4s-1.1-.4-1.8-1l-2.1-2.1c-.7-.7-1.1-1.3-1.1-1.8-.1-.7.1-1.5.5-2.6 1.6-4.7 15.9-22.2 24.9-33.1 1.3-1.6 2.5-3 3.5-4.3.7 4 2.7 7.7 5.6 10.6 2.8 2.8 6.5 4.8 10.4 5.6-1.1.8-2.3 1.7-3.6 2.8" class="uwu__media_svg__st1"/>
  </g>
</svg>
